<?xml version="1.0" encoding="UTF-8" standalone="no"?>
<!-- Created with Inkscape (http://www.inkscape.org/) -->

<svg
   version="1.1"
   id="svg2"
   xml:space="preserve"
   width="1152"
   height="576"
   viewBox="0 0 1152 576"
   sodipodi:docname="table1_biomes.svg"
   inkscape:version="1.1.2 (0a00cf5339, 2022-02-04)"
   xmlns:inkscape="http://www.inkscape.org/namespaces/inkscape"
   xmlns:sodipodi="http://sodipodi.sourceforge.net/DTD/sodipodi-0.dtd"
   xmlns="http://www.w3.org/2000/svg"
   xmlns:svg="http://www.w3.org/2000/svg"><defs
     id="defs6"><clipPath
       clipPathUnits="userSpaceOnUse"
       id="clipPath78"><path
         d="M 0,0 H 864 V 432 H 0 Z"
         id="path76" /></clipPath><clipPath
       clipPathUnits="userSpaceOnUse"
       id="clipPath90"><path
         d="m 75.52,25.34 h 348 v 401.18 h -348 z"
         id="path88" /></clipPath></defs><sodipodi:namedview
     id="namedview4"
     pagecolor="#ffffff"
     bordercolor="#666666"
     borderopacity="1.0"
     inkscape:pageshadow="2"
     inkscape:pageopacity="0.0"
     inkscape:pagecheckerboard="0"
     showgrid="false"
     inkscape:zoom="2.5837805"
     inkscape:cx="795.3462"
     inkscape:cy="279.04847"
     inkscape:window-width="1876"
     inkscape:window-height="1045"
     inkscape:window-x="44"
     inkscape:window-y="0"
     inkscape:window-maximized="1"
     inkscape:current-layer="g8" /><g
     id="g8"
     inkscape:groupmode="layer"
     inkscape:label="table1_biomes"
     transform="matrix(1.3333333,0,0,-1.3333333,0,576)"><g
       id="g14" /><g
       id="g16" /><g
       id="g18" /><g
       id="g20" /><g
       id="g22" /><g
       id="g24" /><g
       id="g26" /><g
       id="g28" /><g
       id="g30" /><g
       id="g32" /><g
       id="g34" /><g
       id="g36" /><g
       id="g38" /><g
       id="g40" /><g
       id="g42" /><g
       id="g44" /><g
       id="g46" /><g
       id="g48" /><g
       id="g50" /><g
       id="g52" /><g
       id="g54" /><g
       id="g56" /><g
       id="g58" /><g
       id="g60" /><g
       id="g62" /><g
       id="g64" /><g
       id="g66" /><g
       id="g68" /><g
       id="g70" /><g
       id="g82" /><g
       id="g84"><g
         id="g86"
         clip-path="url(#clipPath90)"><path
           d="m 75.52,25.34 h 348 v 401.18 h -348 z"
           style="fill:#ffffff;fill-opacity:1;fill-rule:nonzero;stroke:none"
           id="path92" /><path
           d="m 91.33,400.52 h 316.36 v 22.29 H 91.33 Z"
           style="fill:#0c335d;fill-opacity:0.698;fill-rule:nonzero;stroke:none"
           id="path94" /><path
           d="m 91.33,375.75 h 46.18 v 22.29 H 91.33 Z"
           style="fill:#fcb9c3;fill-opacity:0.698;fill-rule:nonzero;stroke:none"
           id="path96" /><path
           d="m 358.06,375.75 h 49.64 v 22.29 h -49.64 z"
           style="fill:#677a3e;fill-opacity:0.698;fill-rule:nonzero;stroke:none"
           id="path98" /><path
           d="m 137.51,375.75 h 220.55 v 22.29 H 137.51 Z"
           style="fill:#faa485;fill-opacity:0.698;fill-rule:nonzero;stroke:none"
           id="path100" /><path
           d="m 91.33,350.99 h 36.85 v 22.29 H 91.33 Z"
           style="fill:#677a3e;fill-opacity:0.698;fill-rule:nonzero;stroke:none"
           id="path102" /><path
           d="m 128.18,350.99 h 130.99 v 22.29 H 128.18 Z"
           style="fill:#3c6b56;fill-opacity:0.698;fill-rule:nonzero;stroke:none"
           id="path104" /><path
           d="M 259.17,350.99 H 407.7 v 22.29 H 259.17 Z"
           style="fill:#0c335d;fill-opacity:0.698;fill-rule:nonzero;stroke:none"
           id="path106" /><path
           d="m 91.33,326.23 h 122 v 22.29 h -122 z"
           style="fill:#3c6b56;fill-opacity:0.698;fill-rule:nonzero;stroke:none"
           id="path108" /><path
           d="m 213.33,326.23 h 194.36 v 22.29 H 213.33 Z"
           style="fill:#0c335d;fill-opacity:0.698;fill-rule:nonzero;stroke:none"
           id="path110" /><path
           d="m 91.33,301.46 h 12.17 v 22.29 H 91.33 Z"
           style="fill:#dbdbdb;fill-opacity:1;fill-rule:nonzero;stroke:none"
           id="path112" /><path
           d="m 376.14,301.46 h 31.55 v 22.29 h -31.55 z"
           style="fill:#0c335d;fill-opacity:0.698;fill-rule:nonzero;stroke:none"
           id="path114" /><path
           d="m 103.5,301.46 h 47.96 v 22.29 H 103.5 Z"
           style="fill:#677a3e;fill-opacity:0.698;fill-rule:nonzero;stroke:none"
           id="path116" /><path
           d="m 151.46,301.46 h 224.69 v 22.29 H 151.46 Z"
           style="fill:#3c6b56;fill-opacity:0.698;fill-rule:nonzero;stroke:none"
           id="path118" /><path
           d="m 91.33,276.7 h 316.36 v 22.29 H 91.33 Z"
           style="fill:#0c335d;fill-opacity:0.698;fill-rule:nonzero;stroke:none"
           id="path120" /><path
           d="m 91.33,251.93 h 88.38 v 22.29 H 91.33 Z"
           style="fill:#faa485;fill-opacity:0.698;fill-rule:nonzero;stroke:none"
           id="path122" /><path
           d="M 179.71,251.93 H 407.7 v 22.29 H 179.71 Z"
           style="fill:#0c335d;fill-opacity:0.698;fill-rule:nonzero;stroke:none"
           id="path124" /><path
           d="m 91.33,227.17 h 316.36 v 22.29 H 91.33 Z"
           style="fill:#0c335d;fill-opacity:0.698;fill-rule:nonzero;stroke:none"
           id="path126" /><path
           d="m 91.33,202.41 h 16.65 V 224.7 H 91.33 Z"
           style="fill:#9b882d;fill-opacity:0.698;fill-rule:nonzero;stroke:none"
           id="path128" /><path
           d="M 107.99,202.41 H 407.7 V 224.7 H 107.99 Z"
           style="fill:#0c335d;fill-opacity:0.698;fill-rule:nonzero;stroke:none"
           id="path130" /><path
           d="m 91.33,177.64 h 316.36 v 22.29 H 91.33 Z"
           style="fill:#0c335d;fill-opacity:0.698;fill-rule:nonzero;stroke:none"
           id="path132" /><path
           d="m 91.33,152.88 h 316.36 v 22.29 H 91.33 Z"
           style="fill:#0c335d;fill-opacity:0.698;fill-rule:nonzero;stroke:none"
           id="path134" /><path
           d="m 174.81,128.12 h 14.66 v 22.29 h -14.66 z"
           style="fill:#3c6b56;fill-opacity:0.698;fill-rule:nonzero;stroke:none"
           id="path136" /><path
           d="m 137.29,128.12 h 37.51 v 22.29 h -37.51 z"
           style="fill:#d7954a;fill-opacity:0.698;fill-rule:nonzero;stroke:none"
           id="path138" /><path
           d="m 91.33,128.12 h 45.96 v 22.29 H 91.33 Z"
           style="fill:#faa485;fill-opacity:0.698;fill-rule:nonzero;stroke:none"
           id="path140" /><path
           d="M 189.47,128.12 H 407.7 v 22.29 H 189.47 Z"
           style="fill:#1a5260;fill-opacity:0.698;fill-rule:nonzero;stroke:none"
           id="path142" /><path
           d="m 91.33,103.35 h 316.36 v 22.29 H 91.33 Z"
           style="fill:#0c335d;fill-opacity:0.698;fill-rule:nonzero;stroke:none"
           id="path144" /><path
           d="m 91.33,78.59 h 316.36 v 22.29 H 91.33 Z"
           style="fill:#0c335d;fill-opacity:0.698;fill-rule:nonzero;stroke:none"
           id="path146" /><path
           d="m 91.33,53.82 h 15.95 V 76.11 H 91.33 Z"
           style="fill:#9b882d;fill-opacity:0.698;fill-rule:nonzero;stroke:none"
           id="path148" /><path
           d="M 107.28,53.82 H 407.69 V 76.11 H 107.28 Z"
           style="fill:#0c335d;fill-opacity:0.698;fill-rule:nonzero;stroke:none"
           id="path150" /><path
           d="M 366.98,29.06 H 407.7 V 51.35 H 366.98 Z"
           style="fill:#1a5260;fill-opacity:0.698;fill-rule:nonzero;stroke:none"
           id="path152" /><path
           d="m 91.33,29.06 h 61.61 V 51.35 H 91.33 Z"
           style="fill:#fcb9c3;fill-opacity:0.698;fill-rule:nonzero;stroke:none"
           id="path154" /><path
           d="M 152.94,29.06 H 366.98 V 51.35 H 152.94 Z"
           style="fill:#faa485;fill-opacity:0.698;fill-rule:nonzero;stroke:none"
           id="path156" /><path
           d="m 75.52,25.34 h 348 v 401.18 h -348 z"
           style="fill:none;stroke:#333333;stroke-width:1.07;stroke-linecap:round;stroke-linejoin:round;stroke-miterlimit:10;stroke-dasharray:none;stroke-opacity:1"
           id="path158" /></g></g><g
       id="g160" /><g
       id="g162" /><g
       id="g164" /><g
       id="g166" /><g
       id="g168" /><g
       id="g170" /><g
       id="g172" /><g
       id="g174" /><g
       id="g176" /><g
       id="g178" /><g
       id="g180" /><g
       id="g182" /><g
       id="g184" /><g
       id="g186" /><g
       id="g188" /><g
       id="g190"><text
         transform="matrix(1,0,0,-1,23.51,38.05)"
         style="font-variant:normal;font-weight:normal;font-size:6px;font-family:Helvetica;-inkscape-font-specification:Helvetica;writing-mode:lr-tb;fill:#4d4d4d;fill-opacity:1;fill-rule:nonzero;stroke:none"
         id="text194"><tspan
           x="0 5.4840002 8.8199997 11.82 13.488 16.823999 18.972 22.308001 23.976 27.798 31.134001 34.133999 35.801998 37.740002 41.076 42.408001 43.740002"
           y="0"
           sodipodi:role="line"
           id="tspan192">Western Australia</tspan></text><text
         transform="matrix(1,0,0,-1,48.58,62.81)"
         style="font-variant:normal;font-weight:normal;font-size:6px;font-family:Helvetica;-inkscape-font-specification:Helvetica;writing-mode:lr-tb;fill:#4d4d4d;fill-opacity:1;fill-rule:nonzero;stroke:none"
         id="text198"><tspan
           x="0 4.0019999 5.3340001 8.6700001 10.338 13.674 17.01"
           y="0"
           sodipodi:role="line"
           id="tspan196">Vietnam</tspan></text><text
         transform="matrix(1,0,0,-1,47.58,87.58)"
         style="font-variant:normal;font-weight:normal;font-size:6px;font-family:Helvetica;-inkscape-font-specification:Helvetica;writing-mode:lr-tb;fill:#4d4d4d;fill-opacity:1;fill-rule:nonzero;stroke:none"
         id="text202"><tspan
           x="0 3.6659999 7.0019999 10.338 11.67 13.002 16.337999 19.674"
           y="0"
           sodipodi:role="line"
           id="tspan200">Thailand</tspan></text><text
         transform="matrix(1,0,0,-1,44.64,112.34)"
         style="font-variant:normal;font-weight:normal;font-size:6px;font-family:Helvetica;-inkscape-font-specification:Helvetica;writing-mode:lr-tb;fill:#4d4d4d;fill-opacity:1;fill-rule:nonzero;stroke:none"
         id="text206"><tspan
           x="0 4.0019999 7.3379998 12.336 15.672 17.34 20.676001 22.614"
           y="0"
           sodipodi:role="line"
           id="tspan204">Sumatera</tspan></text><text
         transform="matrix(1,0,0,-1,38.23,137.1)"
         style="font-variant:normal;font-weight:normal;font-size:6px;font-family:Helvetica;-inkscape-font-specification:Helvetica;writing-mode:lr-tb;fill:#4d4d4d;fill-opacity:1;fill-rule:nonzero;stroke:none"
         id="text210"><tspan
           x="0 4.6680002 8.0039997 11.34 14.676 18.011999 21.011999 22.344 25.68 29.016001"
           y="0"
           sodipodi:role="line"
           id="tspan208">Queensland</tspan></text><text
         transform="matrix(1,0,0,-1,41.58,161.87)"
         style="font-variant:normal;font-weight:normal;font-size:6px;font-family:Helvetica;-inkscape-font-specification:Helvetica;writing-mode:lr-tb;fill:#4d4d4d;fill-opacity:1;fill-rule:nonzero;stroke:none"
         id="text214"><tspan
           x="0 4.0019999 7.3379998 8.6700001 10.002 11.334 14.67 18.006001 19.337999 22.674 26.01"
           y="0"
           sodipodi:role="line"
           id="tspan212">Philippines</tspan></text><text
         transform="matrix(1,0,0,-1,45.7,186.63)"
         style="font-variant:normal;font-weight:normal;font-size:6px;font-family:Helvetica;-inkscape-font-specification:Helvetica;writing-mode:lr-tb;fill:#4d4d4d;fill-opacity:1;fill-rule:nonzero;stroke:none"
         id="text218"><tspan
           x="0 4.9980001 7.8779998 11.214 14.55 19.548 22.884001"
           y="0"
           sodipodi:role="line"
           id="tspan216">Myanmar</tspan></text><text
         transform="matrix(1,0,0,-1,39.09,211.4)"
         style="font-variant:normal;font-weight:normal;font-size:6px;font-family:Helvetica;-inkscape-font-specification:Helvetica;writing-mode:lr-tb;fill:#4d4d4d;fill-opacity:1;fill-rule:nonzero;stroke:none"
         id="text222"><tspan
           x="0 4.9980001 8.1540003 11.154 12.486 15.486 18.822001 20.49 25.158001 28.493999 29.826"
           y="0"
           sodipodi:role="line"
           id="tspan220">Mexico Gulf</tspan></text><text
         transform="matrix(1,0,0,-1,51.55,236.16)"
         style="font-variant:normal;font-weight:normal;font-size:6px;font-family:Helvetica;-inkscape-font-specification:Helvetica;writing-mode:lr-tb;fill:#4d4d4d;fill-opacity:1;fill-rule:nonzero;stroke:none"
         id="text226"><tspan
           x="0 4.9980001 8.3339996 9.6660004 12.822 15.702"
           y="0"
           sodipodi:role="line"
           id="tspan224">Malaya</tspan></text><text
         transform="matrix(1,0,0,-1,57.58,260.92)"
         style="font-variant:normal;font-weight:normal;font-size:6px;font-family:Helvetica;-inkscape-font-specification:Helvetica;writing-mode:lr-tb;fill:#4d4d4d;fill-opacity:1;fill-rule:nonzero;stroke:none"
         id="text230"><tspan
           x="0 1.668 5.0040002 8.3400002 9.6719999"
           y="0"
           sodipodi:role="line"
           id="tspan228">India</tspan></text><text
         transform="matrix(1,0,0,-1,41.24,285.69)"
         style="font-variant:normal;font-weight:normal;font-size:6px;font-family:Helvetica;-inkscape-font-specification:Helvetica;writing-mode:lr-tb;fill:#4d4d4d;fill-opacity:1;fill-rule:nonzero;stroke:none"
         id="text234"><tspan
           x="0 4.6680002 8.0039997 11.34 13.008 16.344 21.341999 24.677999 26.01"
           y="0"
           sodipodi:role="line"
           id="tspan232">Guatemala</tspan></text><text
         transform="matrix(1,0,0,-1,32.21,310.45)"
         style="font-variant:normal;font-weight:normal;font-size:6px;font-family:Helvetica;-inkscape-font-specification:Helvetica;writing-mode:lr-tb;fill:#4d4d4d;fill-opacity:1;fill-rule:nonzero;stroke:none"
         id="text238"><tspan
           x="0 4.0019999 7.3379998 10.338 12.006 13.674 18.006001 19.337999 24.336 27.672001 29.004 32.16 35.040001"
           y="0"
           sodipodi:role="line"
           id="tspan236">East Himalaya</tspan></text><text
         transform="matrix(1,0,0,-1,26.23,335.22)"
         style="font-variant:normal;font-weight:normal;font-size:6px;font-family:Helvetica;-inkscape-font-specification:Helvetica;writing-mode:lr-tb;fill:#4d4d4d;fill-opacity:1;fill-rule:nonzero;stroke:none"
         id="text242"><tspan
           x="0 4.3319998 7.6680002 9 12.336 15.672 17.34 21.341999 24.677999 28.014 29.681999 33.018002 36.354 39.689999 42.689999"
           y="0"
           sodipodi:role="line"
           id="tspan240">China Southeast</tspan></text><text
         transform="matrix(1,0,0,-1,14.79,359.98)"
         style="font-variant:normal;font-weight:normal;font-size:6px;font-family:Helvetica;-inkscape-font-specification:Helvetica;writing-mode:lr-tb;fill:#4d4d4d;fill-opacity:1;fill-rule:nonzero;stroke:none"
         id="text246"><tspan
           x="0 4.3319998 7.6680002 9 12.336 15.672 17.34 21.341999 24.677999 28.014 29.681999 33.018002 36.521999 40.854 44.189999 47.526001 49.194 51.132 54.467999"
           y="0"
           sodipodi:role="line"
           id="tspan244">China South−Central</tspan></text><text
         transform="matrix(1,0,0,-1,28.33,384.74)"
         style="font-variant:normal;font-weight:normal;font-size:6px;font-family:Helvetica;-inkscape-font-specification:Helvetica;writing-mode:lr-tb;fill:#4d4d4d;fill-opacity:1;fill-rule:nonzero;stroke:none"
         id="text250"><tspan
           x="0 4.3319998 7.6680002 11.004 14.34 16.007999 20.01 22.007999 25.254 28.254 29.586 32.922001 35.922001 39.257999"
           y="0"
           sodipodi:role="line"
           id="tspan248">Cape Provinces</tspan></text><text
         transform="matrix(1,0,0,-1,51.09,409.51)"
         style="font-variant:normal;font-weight:normal;font-size:6px;font-family:Helvetica;-inkscape-font-specification:Helvetica;writing-mode:lr-tb;fill:#4d4d4d;fill-opacity:1;fill-rule:nonzero;stroke:none"
         id="text254"><tspan
           x="0 4.0019999 7.3379998 9.4860001 12.822 16.158001"
           y="0"
           sodipodi:role="line"
           id="tspan252">Borneo</tspan></text></g><g
       id="g256" /><g
       id="g258"><path
         d="m 72.78,40.2 h 2.74"
         style="fill:none;stroke:#333333;stroke-width:1.07;stroke-linecap:butt;stroke-linejoin:round;stroke-miterlimit:10;stroke-dasharray:none;stroke-opacity:1"
         id="path260" /><path
         d="m 72.78,64.97 h 2.74"
         style="fill:none;stroke:#333333;stroke-width:1.07;stroke-linecap:butt;stroke-linejoin:round;stroke-miterlimit:10;stroke-dasharray:none;stroke-opacity:1"
         id="path262" /><path
         d="m 72.78,89.73 h 2.74"
         style="fill:none;stroke:#333333;stroke-width:1.07;stroke-linecap:butt;stroke-linejoin:round;stroke-miterlimit:10;stroke-dasharray:none;stroke-opacity:1"
         id="path264" /><path
         d="m 72.78,114.49 h 2.74"
         style="fill:none;stroke:#333333;stroke-width:1.07;stroke-linecap:butt;stroke-linejoin:round;stroke-miterlimit:10;stroke-dasharray:none;stroke-opacity:1"
         id="path266" /><path
         d="m 72.78,139.26 h 2.74"
         style="fill:none;stroke:#333333;stroke-width:1.07;stroke-linecap:butt;stroke-linejoin:round;stroke-miterlimit:10;stroke-dasharray:none;stroke-opacity:1"
         id="path268" /><path
         d="m 72.78,164.02 h 2.74"
         style="fill:none;stroke:#333333;stroke-width:1.07;stroke-linecap:butt;stroke-linejoin:round;stroke-miterlimit:10;stroke-dasharray:none;stroke-opacity:1"
         id="path270" /><path
         d="m 72.78,188.79 h 2.74"
         style="fill:none;stroke:#333333;stroke-width:1.07;stroke-linecap:butt;stroke-linejoin:round;stroke-miterlimit:10;stroke-dasharray:none;stroke-opacity:1"
         id="path272" /><path
         d="m 72.78,213.55 h 2.74"
         style="fill:none;stroke:#333333;stroke-width:1.07;stroke-linecap:butt;stroke-linejoin:round;stroke-miterlimit:10;stroke-dasharray:none;stroke-opacity:1"
         id="path274" /><path
         d="m 72.78,238.31 h 2.74"
         style="fill:none;stroke:#333333;stroke-width:1.07;stroke-linecap:butt;stroke-linejoin:round;stroke-miterlimit:10;stroke-dasharray:none;stroke-opacity:1"
         id="path276" /><path
         d="m 72.78,263.08 h 2.74"
         style="fill:none;stroke:#333333;stroke-width:1.07;stroke-linecap:butt;stroke-linejoin:round;stroke-miterlimit:10;stroke-dasharray:none;stroke-opacity:1"
         id="path278" /><path
         d="m 72.78,287.84 h 2.74"
         style="fill:none;stroke:#333333;stroke-width:1.07;stroke-linecap:butt;stroke-linejoin:round;stroke-miterlimit:10;stroke-dasharray:none;stroke-opacity:1"
         id="path280" /><path
         d="m 72.78,312.61 h 2.74"
         style="fill:none;stroke:#333333;stroke-width:1.07;stroke-linecap:butt;stroke-linejoin:round;stroke-miterlimit:10;stroke-dasharray:none;stroke-opacity:1"
         id="path282" /><path
         d="m 72.78,337.37 h 2.74"
         style="fill:none;stroke:#333333;stroke-width:1.07;stroke-linecap:butt;stroke-linejoin:round;stroke-miterlimit:10;stroke-dasharray:none;stroke-opacity:1"
         id="path284" /><path
         d="m 72.78,362.13 h 2.74"
         style="fill:none;stroke:#333333;stroke-width:1.07;stroke-linecap:butt;stroke-linejoin:round;stroke-miterlimit:10;stroke-dasharray:none;stroke-opacity:1"
         id="path286" /><path
         d="m 72.78,386.9 h 2.74"
         style="fill:none;stroke:#333333;stroke-width:1.07;stroke-linecap:butt;stroke-linejoin:round;stroke-miterlimit:10;stroke-dasharray:none;stroke-opacity:1"
         id="path288" /><path
         d="m 72.78,411.66 h 2.74"
         style="fill:none;stroke:#333333;stroke-width:1.07;stroke-linecap:butt;stroke-linejoin:round;stroke-miterlimit:10;stroke-dasharray:none;stroke-opacity:1"
         id="path290" /></g><g
       id="g292" /><g
       id="g294" /><g
       id="g296" /><g
       id="g298" /><g
       id="g300" /><g
       id="g302" /><g
       id="g304" /><g
       id="g306" /><g
       id="g308" /><g
       id="g310"><path
         d="m 91.33,22.6 v 2.74"
         style="fill:none;stroke:#333333;stroke-width:1.07;stroke-linecap:butt;stroke-linejoin:round;stroke-miterlimit:10;stroke-dasharray:none;stroke-opacity:1"
         id="path312" /><path
         d="m 170.43,22.6 v 2.74"
         style="fill:none;stroke:#333333;stroke-width:1.07;stroke-linecap:butt;stroke-linejoin:round;stroke-miterlimit:10;stroke-dasharray:none;stroke-opacity:1"
         id="path314" /><path
         d="m 249.52,22.6 v 2.74"
         style="fill:none;stroke:#333333;stroke-width:1.07;stroke-linecap:butt;stroke-linejoin:round;stroke-miterlimit:10;stroke-dasharray:none;stroke-opacity:1"
         id="path316" /><path
         d="m 328.61,22.6 v 2.74"
         style="fill:none;stroke:#333333;stroke-width:1.07;stroke-linecap:butt;stroke-linejoin:round;stroke-miterlimit:10;stroke-dasharray:none;stroke-opacity:1"
         id="path318" /><path
         d="m 407.7,22.6 v 2.74"
         style="fill:none;stroke:#333333;stroke-width:1.07;stroke-linecap:butt;stroke-linejoin:round;stroke-miterlimit:10;stroke-dasharray:none;stroke-opacity:1"
         id="path320" /></g><g
       id="g322" /><g
       id="g324"><text
         transform="matrix(1,0,0,-1,85.5,16.11)"
         style="font-variant:normal;font-weight:normal;font-size:6px;font-family:Helvetica;-inkscape-font-specification:Helvetica;writing-mode:lr-tb;fill:#4d4d4d;fill-opacity:1;fill-rule:nonzero;stroke:none"
         id="text328"><tspan
           x="0 3.336 5.0040002 8.3400002"
           y="0"
           sodipodi:role="line"
           id="tspan326">0.00</tspan></text><text
         transform="matrix(1,0,0,-1,164.59,16.11)"
         style="font-variant:normal;font-weight:normal;font-size:6px;font-family:Helvetica;-inkscape-font-specification:Helvetica;writing-mode:lr-tb;fill:#4d4d4d;fill-opacity:1;fill-rule:nonzero;stroke:none"
         id="text332"><tspan
           x="0 3.336 5.0040002 8.3400002"
           y="0"
           sodipodi:role="line"
           id="tspan330">0.25</tspan></text><text
         transform="matrix(1,0,0,-1,243.68,16.11)"
         style="font-variant:normal;font-weight:normal;font-size:6px;font-family:Helvetica;-inkscape-font-specification:Helvetica;writing-mode:lr-tb;fill:#4d4d4d;fill-opacity:1;fill-rule:nonzero;stroke:none"
         id="text336"><tspan
           x="0 3.336 5.0040002 8.3400002"
           y="0"
           sodipodi:role="line"
           id="tspan334">0.50</tspan></text><text
         transform="matrix(1,0,0,-1,322.77,16.11)"
         style="font-variant:normal;font-weight:normal;font-size:6px;font-family:Helvetica;-inkscape-font-specification:Helvetica;writing-mode:lr-tb;fill:#4d4d4d;fill-opacity:1;fill-rule:nonzero;stroke:none"
         id="text340"><tspan
           x="0 3.336 5.0040002 8.3400002"
           y="0"
           sodipodi:role="line"
           id="tspan338">0.75</tspan></text><text
         transform="matrix(1,0,0,-1,401.86,16.11)"
         style="font-variant:normal;font-weight:normal;font-size:6px;font-family:Helvetica;-inkscape-font-specification:Helvetica;writing-mode:lr-tb;fill:#4d4d4d;fill-opacity:1;fill-rule:nonzero;stroke:none"
         id="text344"><tspan
           x="0 3.336 5.0040002 8.3400002"
           y="0"
           sodipodi:role="line"
           id="tspan342">1.00</tspan></text></g><g
       id="g346" /><g
       id="g348" /><g
       id="g350" /><g
       id="g352" /><g
       id="g354" /><g
       id="g356"><text
         transform="matrix(1,0,0,-1,241.24,7.02)"
         style="font-variant:normal;font-weight:normal;font-size:7px;font-family:Helvetica;-inkscape-font-specification:Helvetica;writing-mode:lr-tb;fill:#000000;fill-opacity:1;fill-rule:nonzero;stroke:none"
         id="text360"><tspan
           x="0 3.325 7.217 8.7709999 12.663"
           y="0"
           sodipodi:role="line"
           id="tspan358">value</tspan></text></g><g
       id="g362" /><g
       id="g364"><text
         transform="matrix(0,1,1,0,10.51,202.98)"
         style="font-variant:normal;font-weight:normal;font-size:7px;font-family:Helvetica;-inkscape-font-specification:Helvetica;writing-mode:lr-tb;fill:#000000;fill-opacity:1;fill-rule:nonzero;stroke:none"
         id="text368"><tspan
           x="0 3.892 8.5609999 13.23 17.899 21.791 25.683001 30.737 35.405998 41.237"
           y="0"
           sodipodi:role="line"
           id="tspan366">LEVEL_NAME</tspan></text></g><g
       id="g370" /><g
       id="g372" /><g
       id="g374" /><g
       id="g376" /><g
       id="g378" /><g
       id="g380" /><g
       id="g382" /><g
       id="g388" /><g
       id="g390" /><g
       id="g392" /><g
       id="g394"><text
         transform="matrix(1,0,0,-1,439.95,254.57)"
         style="font-variant:normal;font-weight:normal;font-size:7px;font-family:Helvetica;-inkscape-font-specification:Helvetica;writing-mode:lr-tb;fill:#000000;fill-opacity:1;fill-rule:nonzero;stroke:none"
         id="text398"><tspan
           x="0 4.6690001 6.223 10.115 15.946"
           y="0"
           sodipodi:role="line"
           id="tspan396">Biome</tspan></text></g><g
       id="g400" /><g
       id="g402" /><g
       id="g404"><path
         d="m 439.95,233.03 h 17.28 v 17.28 h -17.28 z"
         style="fill:#ffffff;fill-opacity:1;fill-rule:nonzero;stroke:none"
         id="path406" /></g><g
       id="g408" /><g
       id="g410"><path
         d="m 440.66,233.74 h 15.86 v 15.86 h -15.86 z"
         style="fill:#0c335d;fill-opacity:0.698;fill-rule:nonzero;stroke:none"
         id="path412" /></g><g
       id="g414" /><g
       id="g416"
       transform="translate(75.91946)"><path
         d="m 560.83,233.03 h 17.28 v 17.28 h -17.28 z"
         style="fill:#ffffff;fill-opacity:1;fill-rule:nonzero;stroke:none"
         id="path418" /></g><g
       id="g420" /><path
       d="m 637.45946,233.74 h 15.86 v 15.86 h -15.86 z"
       style="fill:#1a5260;fill-opacity:0.698;fill-rule:nonzero;stroke:none"
       id="path424" /><g
       id="g426" /><g
       id="g428"
       transform="translate(-151.5)"><path
         d="m 712.21,233.03 h 17.28 v 17.28 h -17.28 z"
         style="fill:#ffffff;fill-opacity:1;fill-rule:nonzero;stroke:none"
         id="path430" /></g><g
       id="g432" /><g
       id="g434"
       transform="translate(-151.5)"><path
         d="m 712.92,233.74 h 15.86 v 15.86 h -15.86 z"
         style="fill:#3c6b56;fill-opacity:0.698;fill-rule:nonzero;stroke:none"
         id="path436" /></g><g
       id="g438" /><g
       id="g440"><path
         d="m 439.95,212.27 h 17.28 v 17.28 h -17.28 z"
         style="fill:#ffffff;fill-opacity:1;fill-rule:nonzero;stroke:none"
         id="path442" /></g><g
       id="g444" /><g
       id="g446"
       transform="translate(0,1.5)"><path
         d="m 440.66,212.97 h 15.86 v 15.86 h -15.86 z"
         style="fill:#677a3e;fill-opacity:0.698;fill-rule:nonzero;stroke:none"
         id="path448" /></g><g
       id="g450" /><g
       id="g452"><path
         d="m 560.83,212.27 h 17.28 v 17.28 h -17.28 z"
         style="fill:#ffffff;fill-opacity:1;fill-rule:nonzero;stroke:none"
         id="path454" /></g><g
       id="g456" /><g
       id="g458"
       transform="translate(0,1.5)"><path
         d="m 561.54,212.97 h 15.86 v 15.86 h -15.86 z"
         style="fill:#9b882d;fill-opacity:0.698;fill-rule:nonzero;stroke:none"
         id="path460" /></g><g
       id="g462" /><g
       id="g464"
       transform="translate(-75.580545)"><path
         d="m 712.21,212.27 h 17.28 v 17.28 h -17.28 z"
         style="fill:#ffffff;fill-opacity:1;fill-rule:nonzero;stroke:none"
         id="path466" /></g><g
       id="g468" /><g
       id="g470"
       transform="translate(-75.580545,1.5)"><path
         d="m 712.92,212.97 h 15.86 v 15.86 h -15.86 z"
         style="fill:#d7954a;fill-opacity:0.698;fill-rule:nonzero;stroke:none"
         id="path472" /></g><g
       id="g474" /><g
       id="g476"
       transform="translate(0,3)"><path
         d="m 439.95,191.5 h 17.28 v 17.28 h -17.28 z"
         style="fill:#ffffff;fill-opacity:1;fill-rule:nonzero;stroke:none"
         id="path478" /></g><g
       id="g480" /><g
       id="g482"
       transform="translate(0,3)"><path
         d="m 440.66,192.21 h 15.86 v 15.86 h -15.86 z"
         style="fill:#faa485;fill-opacity:0.698;fill-rule:nonzero;stroke:none"
         id="path484" /></g><g
       id="g486" /><g
       id="g488"
       transform="translate(75.91946,3)"><path
         d="m 560.83,191.5 h 17.28 v 17.28 h -17.28 z"
         style="fill:#ffffff;fill-opacity:1;fill-rule:nonzero;stroke:none"
         id="path490" /></g><g
       id="g492" /><g
       id="g494"
       transform="translate(75.91946,3)"><path
         d="m 561.54,192.21 h 15.86 v 15.86 h -15.86 z"
         style="fill:#fcb9c3;fill-opacity:0.698;fill-rule:nonzero;stroke:none"
         id="path496" /></g><g
       id="g498" /><g
       id="g500"
       transform="translate(-151.5,3)"><path
         d="m 712.21,191.5 h 17.28 v 17.28 h -17.28 z"
         style="fill:#ffffff;fill-opacity:1;fill-rule:nonzero;stroke:none"
         id="path502" /></g><g
       id="g504" /><g
       id="g506"
       transform="translate(-151.5,3)"><path
         d="m 712.92,192.21 h 15.86 v 15.86 h -15.86 z"
         style="fill:#dbdbdb;fill-opacity:1;fill-rule:nonzero;stroke:none"
         id="path508" /></g><g
       id="g510" /><g
       id="g512" /><g
       id="g514" /><g
       id="g516"><text
         transform="matrix(1,0,0,-1,460.72,239.52)"
         style="font-variant:normal;font-weight:normal;font-size:6px;font-family:Helvetica;-inkscape-font-specification:Helvetica;writing-mode:lr-tb;fill:#000000;fill-opacity:1;fill-rule:nonzero;stroke:none"
         id="text520"><tspan
           sodipodi:role="line"
           id="tspan518"
           y="0"
           x="0 1.998 6 9.3360004 12.672 14.67 17.615999 19.614 22.950001 26.285999 27.618 30.618 33.953999 35.285999 36.953999 38.442001 41.778 43.776001 47.112 50.112 51.779999">(Sub)Tropical forests</tspan></text><circle
         id="path1508"
         style="fill:#000000;stroke:#242424;stroke-width:0.75"
         cx="493.56592"
         cy="-240.35852"
         r="0.3877472"
         transform="scale(1,-1)" /></g><g
       id="g522" /><g
       id="g524" /><g
       id="g526" /><g
       id="g528" /><g
       id="g530"
       transform="translate(75.91946)"><text
         transform="matrix(1,0,0,-1,581.6,239.52)"
         style="font-variant:normal;font-weight:normal;font-size:6px;font-family:Helvetica;-inkscape-font-specification:Helvetica;writing-mode:lr-tb;fill:#000000;fill-opacity:1;fill-rule:nonzero;stroke:none"
         id="text534"><tspan
           x="0 1.998 6 9.3360004 12.672 14.67 17.615999 19.614 22.950001 26.285999 27.618 30.618 33.953999 35.285999 36.953999 40.290001 42.228001 45.563999 48.563999 51.563999 52.896 56.231998 59.568001 62.903999 65.814003 67.482002 69.150002 72.150002 75.365997 78.216003 81.552002 84.888 88.223999 91.559998 94.470001 96.138 97.806 100.806 104.142 106.23 109.566 112.782 114.114 117.45 120.786 124.122"
           y="0"
           sodipodi:role="line"
           id="tspan532">(Sub)Tropical grasslands, savannas, shrublands</tspan></text></g><g
       id="g536" /><g
       id="g538" /><g
       id="g540" /><g
       id="g542" /><g
       id="g544"
       transform="translate(-151.5)"><text
         transform="matrix(1,0,0,-1,732.98,239.52)"
         style="font-variant:normal;font-weight:normal;font-size:6px;font-family:Helvetica;-inkscape-font-specification:Helvetica;writing-mode:lr-tb;fill:#000000;fill-opacity:1;fill-rule:nonzero;stroke:none"
         id="text548"><tspan
           x="0 2.9460001 6.2820001 11.28 14.616 17.952 19.889999 23.226 24.893999 28.23 29.898001 31.386 34.722 36.720001 40.056 43.056 44.723999"
           y="0"
           sodipodi:role="line"
           id="tspan546">Temperate forests</tspan></text></g><g
       id="g550" /><g
       id="g552" /><g
       id="g554" /><g
       id="g556" /><g
       id="g558"
       transform="translate(0,1.5)"><text
         transform="matrix(1,0,0,-1,460.72,218.75)"
         style="font-variant:normal;font-weight:normal;font-size:6px;font-family:Helvetica;-inkscape-font-specification:Helvetica;writing-mode:lr-tb;fill:#000000;fill-opacity:1;fill-rule:nonzero;stroke:none"
         id="text562"><tspan
           x="0 4.9980001 8.3339996 11.67 13.338 16.674 20.01 23.346001 25.014 28.35 30.288 33.624001 36.624001 39.624001 40.956001 44.292 47.627998 50.964001 53.964001 55.632 58.967999 62.304001 65.639999 67.307999 70.307999 73.643997 75.732002 79.068001 82.283997 83.615997 86.952003 90.288002 93.624001"
           y="0"
           sodipodi:role="line"
           id="tspan560">Montane grasslands and shrublands</tspan></text></g><g
       id="g564" /><g
       id="g566" /><g
       id="g568" /><g
       id="g570" /><g
       id="g572"
       transform="translate(0,1.5)"><text
         transform="matrix(1,0,0,-1,581.6,218.75)"
         style="font-variant:normal;font-weight:normal;font-size:6px;font-family:Helvetica;-inkscape-font-specification:Helvetica;writing-mode:lr-tb;fill:#000000;fill-opacity:1;fill-rule:nonzero;stroke:none"
         id="text576"><tspan
           x="0 4.9980001 8.3339996 11.67 15.006 17.004 20.25 23.1 26.436001"
           y="0"
           sodipodi:role="line"
           id="tspan574">Mangroves</tspan></text></g><g
       id="g578" /><g
       id="g580" /><g
       id="g582" /><g
       id="g584" /><g
       id="g586"
       transform="translate(-75.580545,1.5)"><text
         transform="matrix(1,0,0,-1,732.98,218.75)"
         style="font-variant:normal;font-weight:normal;font-size:6px;font-family:Helvetica;-inkscape-font-specification:Helvetica;writing-mode:lr-tb;fill:#000000;fill-opacity:1;fill-rule:nonzero;stroke:none"
         id="text590"><tspan
           x="0 2.9460001 6.2820001 11.28 14.616 17.952 19.889999 23.226 24.893999 28.23 29.898001 33.234001 35.172001 38.507999 41.507999 44.507999 45.84 49.175999 52.512001 55.848 58.757999 60.425999 62.094002 65.094002 68.309998 71.160004 74.496002 77.832001 81.167999 84.503998 87.414001 89.082001 90.75 93.75 97.085999 99.174004 102.51 105.726 107.058 110.394 113.73 117.066"
           y="0"
           sodipodi:role="line"
           id="tspan588">Temperate grasslands, savannas, shrublands</tspan></text></g><g
       id="g592" /><g
       id="g594" /><g
       id="g596" /><g
       id="g598" /><g
       id="g600"
       transform="translate(0,3)"><text
         transform="matrix(1,0,0,-1,460.72,197.99)"
         style="font-variant:normal;font-weight:normal;font-size:6px;font-family:Helvetica;-inkscape-font-specification:Helvetica;writing-mode:lr-tb;fill:#000000;fill-opacity:1;fill-rule:nonzero;stroke:none"
         id="text604"><tspan
           x="0 4.3319998 7.6680002 10.668 14.004 16.242001 17.91 20.91 22.577999 25.914 29.25 32.585999 34.254002 37.074001 40.41 42.498001 43.830002 46.830002 48.498001 51.498001 54.834 56.922001 60.257999 63.473999 64.806 68.141998 71.477997 74.814003"
           y="0"
           sodipodi:role="line"
           id="tspan602">Deserts and xeric shrublands</tspan></text></g><g
       id="g606" /><g
       id="g608" /><g
       id="g610" /><g
       id="g612" /><g
       id="g614"
       transform="translate(75.91946,3)"><text
         transform="matrix(1,0,0,-1,581.6,197.99)"
         style="font-variant:normal;font-weight:normal;font-size:6px;font-family:Helvetica;-inkscape-font-specification:Helvetica;writing-mode:lr-tb;fill:#000000;fill-opacity:1;fill-rule:nonzero;stroke:none"
         id="text618"><tspan
           x="0 4.9980001 8.3339996 11.67 13.002 14.67 18.006001 20.004 21.941999 25.278 28.614 31.950001 35.285999 38.622002 40.290001 41.778 45.113998 47.112 50.448002 53.448002 55.116001 58.026001 59.694 61.362 65.634003 68.970001 72.306 75.641998 76.973999 80.309998 83.646004 86.982002 89.891998 91.559998 93.227997 96.227997 99.227997 101.316 104.652"
           y="0"
           sodipodi:role="line"
           id="tspan616">Mediterranean forests, woodlands, scrub</tspan></text></g><g
       id="g620" /><g
       id="g622" /><g
       id="g624" /><g
       id="g626" /><g
       id="g628"
       transform="translate(-151.5,3)"><text
         transform="matrix(1,0,0,-1,732.98,197.99)"
         style="font-variant:normal;font-weight:normal;font-size:6px;font-family:Helvetica;-inkscape-font-specification:Helvetica;writing-mode:lr-tb;fill:#000000;fill-opacity:1;fill-rule:nonzero;stroke:none"
         id="text632"><tspan
           x="0 4.3319998 7.6680002 10.668 13.668 15.336 18.672001 22.007999 25.344 27.011999 28.344 31.344"
           y="0"
           sodipodi:role="line"
           id="tspan630">Rock and ice</tspan></text></g><g
       id="g634" /><g
       id="g636" /><g
       id="g638" /><g
       id="g640" /><g
       id="g642" /><g
       id="g644" /><g
       id="g646" /><g
       id="g648" /><g
       id="g650" /><g
       id="g652" /><g
       id="g654" /><g
       id="g656" /><g
       id="g658" /></g></svg>
